<svg width="72" height="72" viewBox="0 0 72 72" fill="none" xmlns="http://www.w3.org/2000/svg">
<g clip-path="url(#clip0_80_82)">
<rect width="72" height="72" rx="16" fill="#0000FF"/>
<g filter="url(#filter0_f_80_82)">
<rect width="72" height="6" fill="#CCCCFF"/>
</g>
<g filter="url(#filter1_f_80_82)">
<rect x="66" width="6" height="72" fill="#CCCCFF"/>
</g>
<path d="M34.1861 26.1389C34.5395 26.3549 34.6508 26.8166 34.4348 27.17C34.278 27.4264 34.3173 27.7569 34.5298 27.9694L34.6277 28.0673C35.2164 28.656 35.4334 29.5208 35.1926 30.3176C35.0727 30.7141 34.6541 30.9384 34.2576 30.8185C33.8611 30.6987 33.6369 30.2801 33.7567 29.8836C33.8376 29.616 33.7647 29.3256 33.5671 29.128L33.4692 29.0301C32.7667 28.3276 32.6368 27.2353 33.155 26.3876C33.371 26.0342 33.8327 25.9229 34.1861 26.1389Z" fill="white"/>
<path d="M41.6891 28.7214C42.0952 28.8026 42.3586 29.1977 42.2774 29.6039L42.1334 30.3238C41.9353 31.3146 41.2214 32.1233 40.2628 32.4428C39.8149 32.5921 39.4813 32.97 39.3887 33.433L39.2447 34.1529C39.1635 34.5591 38.7684 34.8225 38.3622 34.7413C37.956 34.6601 37.6926 34.2649 37.7738 33.8588L37.9178 33.1388C38.116 32.148 38.8299 31.3393 39.7885 31.0198C40.2364 30.8705 40.57 30.4926 40.6626 30.0297L40.8065 29.3097C40.8878 28.9035 41.2829 28.6401 41.6891 28.7214Z" fill="white"/>
<path d="M45.4085 37.5592C45.0468 37.4011 44.6262 37.4675 44.3308 37.7294C43.5215 38.447 42.3439 38.5663 41.4072 38.0255L41.1943 37.9026C40.8356 37.6955 40.7127 37.2368 40.9198 36.8781C41.1269 36.5194 41.5856 36.3965 41.9443 36.6036L42.1572 36.7265C42.5347 36.9444 43.0094 36.8964 43.3356 36.6071C44.0684 35.9573 45.112 35.7925 46.0094 36.1849L46.3009 36.3123C46.6804 36.4783 46.8536 36.9204 46.6876 37.3C46.5217 37.6795 46.0795 37.8526 45.7 37.6867L45.4085 37.5592Z" fill="white"/>
<path d="M30.9276 27.9406C31.1371 27.7311 31.4767 27.7311 31.6862 27.9406C31.8956 28.15 31.8956 28.4897 31.6862 28.6991C31.4767 28.9086 31.1371 28.9086 30.9276 28.6991C30.7181 28.4897 30.7181 28.15 30.9276 27.9406Z" fill="white"/>
<path d="M36.9157 31.1569C36.7062 30.9474 36.3666 30.9474 36.1571 31.1569C35.9476 31.3663 35.9476 31.706 36.1571 31.9154C36.3666 32.1249 36.7062 32.1249 36.9157 31.9154C37.1251 31.706 37.1251 31.3663 36.9157 31.1569Z" fill="white"/>
<path d="M41.1571 34.1569C41.3666 33.9474 41.7062 33.9474 41.9157 34.1569C42.1251 34.3663 42.1251 34.706 41.9157 34.9154C41.7062 35.1249 41.3666 35.1249 41.1571 34.9154C40.9476 34.706 40.9476 34.3663 41.1571 34.1569Z" fill="white"/>
<path d="M43.8165 39.3131C43.6071 39.1037 43.2674 39.1037 43.058 39.3131C42.8485 39.5226 42.8485 39.8622 43.058 40.0717C43.2674 40.2811 43.6071 40.2811 43.8165 40.0717C44.026 39.8622 44.026 39.5226 43.8165 39.3131Z" fill="white"/>
<path d="M31.4715 44.2412C29.21 44.9868 28.0184 45.2988 27.3592 44.6397C26.6294 43.9098 27.0903 42.5271 28.0121 39.7617L29.7016 34.6932C30.3336 32.7971 30.7049 31.6833 31.3244 31.2314L31.3192 31.2573C31.312 31.2932 31.3016 31.3456 31.2884 31.4131C31.2621 31.5481 31.225 31.7433 31.1812 31.9865C31.0936 32.4725 30.9789 33.1517 30.8703 33.9256C30.6552 35.4588 30.456 37.4178 30.5586 38.9832C30.6207 39.9305 30.8178 41.1055 30.9937 42.0237C31.0824 42.4871 31.1674 42.8932 31.2302 43.1837C31.2617 43.329 31.2876 43.4456 31.3058 43.5263L31.3269 43.6194L31.4715 44.2412Z" fill="white"/>
<path d="M37.0389 42.3863L37.3057 42.2974C39.6038 41.5313 40.7528 41.1483 40.9667 40.2421C41.1807 39.3358 40.3242 38.4794 38.6114 36.7665L36.9221 35.0773L36.9174 35.0921C36.8978 35.1539 36.8694 35.2449 36.8352 35.3593C36.7666 35.5885 36.6751 35.9094 36.5837 36.2752C36.3967 37.024 36.227 37.8971 36.227 38.5551C36.227 39.213 36.3967 40.0861 36.5837 40.835C36.6751 41.2008 36.7666 41.5217 36.8352 41.7509C36.8694 41.8653 36.8978 41.9563 36.9174 42.0181C36.9272 42.049 36.9348 42.0726 36.9398 42.088L36.9454 42.1051L36.9467 42.1089L37.0389 42.3863Z" fill="white"/>
<path d="M32.7997 31.5041L32.8503 31.2589C33.4631 31.6182 34.1888 32.3439 35.2324 33.3875L35.7352 33.8904L35.5225 34.5304L35.5134 34.5583C35.5073 34.5769 35.4986 34.6039 35.4877 34.6383C35.4658 34.7071 35.435 34.8061 35.3982 34.9291C35.3246 35.1749 35.2266 35.5186 35.1284 35.9118C34.9363 36.681 34.727 37.7033 34.727 38.5551C34.727 39.4069 34.9363 40.4292 35.1284 41.1984C35.2266 41.5916 35.3246 41.9353 35.3982 42.181C35.435 42.3041 35.4658 42.403 35.4877 42.4719C35.4986 42.5063 35.5073 42.5332 35.5134 42.5519L35.6159 42.8606L32.9009 43.7656L32.7941 43.3065L32.789 43.2844L32.7691 43.1967C32.7518 43.1198 32.7268 43.0074 32.6963 42.8666C32.6354 42.5849 32.5529 42.1907 32.4669 41.7415C32.2931 40.8345 32.1111 39.735 32.0554 38.8851C31.9633 37.4813 32.1432 35.6494 32.3558 34.1341C32.4611 33.3837 32.5724 32.7242 32.6574 32.2525C32.6999 32.0169 32.7357 31.8286 32.7608 31.6997C32.7733 31.6353 32.7832 31.5858 32.7898 31.5527L32.7973 31.5155L32.7992 31.5065L32.7997 31.5041Z" fill="white"/>
<path d="M38.9535 26.2102C39.1052 26.1901 39.3817 26.1804 39.6015 26.4002C39.8212 26.6199 39.8116 26.8964 39.7915 27.0481C39.7724 27.1915 39.7236 27.3632 39.677 27.5268L39.6412 27.6528L39.7059 27.7553C39.7934 27.8938 39.8874 28.0427 39.945 28.1751C40.0099 28.3245 40.0837 28.5766 39.9445 28.8415C39.808 29.1013 39.5635 29.1868 39.4079 29.2222C39.2664 29.2544 39.0893 29.2681 38.921 29.2812L38.7935 29.2912L38.7829 29.292L38.691 29.4036C38.5814 29.5369 38.4676 29.6752 38.3603 29.7733C38.2467 29.8772 38.0332 30.0375 37.736 29.9968C37.4286 29.9547 37.2692 29.7321 37.192 29.593C37.1222 29.467 37.061 29.3012 37.004 29.1467L36.9638 29.0379L36.8549 28.9976C36.7004 28.9406 36.5346 28.8795 36.4087 28.8096C36.2696 28.7325 36.047 28.5731 36.0049 28.2657C35.9642 27.9685 36.1244 27.755 36.2284 27.6414C36.3265 27.5341 36.4648 27.4203 36.5981 27.3106L36.7097 27.2188L36.7105 27.2081L36.7204 27.0806C36.7335 26.9123 36.7473 26.7353 36.7795 26.5937C36.8148 26.4382 36.9003 26.1937 37.1602 26.0571C37.4251 25.9179 37.6772 25.9918 37.8265 26.0567C37.959 26.1143 38.1078 26.2083 38.2464 26.2958L38.3489 26.3604L38.4748 26.3246C38.6385 26.2781 38.8102 26.2292 38.9535 26.2102Z" fill="white"/>
<path d="M46.1397 34.4921C46.6068 34.0249 46.7795 33.3961 46.5236 32.8422C46.3295 32.422 45.9368 32.1487 45.4545 32.0458C45.3516 31.5635 45.0783 31.1707 44.6581 30.9766C44.1042 30.7208 43.4753 30.8934 43.0082 31.3606C42.7373 31.6315 42.6146 31.9945 42.5571 32.3177C42.4983 32.6484 42.4972 32.998 42.5168 33.3043C42.5366 33.6135 42.5788 33.8971 42.6157 34.1021C42.6342 34.2051 42.6516 34.2897 42.6645 34.3492C42.671 34.3791 42.6764 34.4027 42.6803 34.4194C42.7249 34.5995 42.8723 34.7686 43.0523 34.8131L43.0535 34.8134L43.0809 34.8199C43.0975 34.8238 43.1212 34.8292 43.151 34.8357C43.2106 34.8487 43.2951 34.8661 43.3982 34.8846C43.6032 34.9214 43.8868 34.9637 44.196 34.9835C44.5023 35.0031 44.8518 35.0019 45.1825 34.9431C45.5058 34.8856 45.8688 34.7629 46.1397 34.4921Z" fill="white"/>
</g>
<defs>
<filter id="filter0_f_80_82" x="-20" y="-20" width="112" height="46" filterUnits="userSpaceOnUse" color-interpolation-filters="sRGB">
<feFlood flood-opacity="0" result="BackgroundImageFix"/>
<feBlend mode="normal" in="SourceGraphic" in2="BackgroundImageFix" result="shape"/>
<feGaussianBlur stdDeviation="10" result="effect1_foregroundBlur_80_82"/>
</filter>
<filter id="filter1_f_80_82" x="46" y="-20" width="46" height="112" filterUnits="userSpaceOnUse" color-interpolation-filters="sRGB">
<feFlood flood-opacity="0" result="BackgroundImageFix"/>
<feBlend mode="normal" in="SourceGraphic" in2="BackgroundImageFix" result="shape"/>
<feGaussianBlur stdDeviation="10" result="effect1_foregroundBlur_80_82"/>
</filter>
<clipPath id="clip0_80_82">
<rect width="72" height="72" rx="16" fill="white"/>
</clipPath>
</defs>
</svg>
