<svg width="72" height="72" viewBox="0 0 72 72" fill="none" xmlns="http://www.w3.org/2000/svg">
<g clip-path="url(#clip0_80_78)">
<rect width="72" height="72" rx="16" fill="#0000FF"/>
<g filter="url(#filter0_f_80_78)">
<rect width="72" height="6" fill="#CCCCFF"/>
</g>
<g filter="url(#filter1_f_80_78)">
<rect x="66" width="6" height="72" fill="#CCCCFF"/>
</g>
<path fill-rule="evenodd" clip-rule="evenodd" d="M43.4998 33.5605C43.5332 37.7025 40.0815 41.5334 35.9395 41.5C31.7975 41.4666 28.5337 37.5815 28.5002 33.4395C28.4668 29.2975 31.7975 25.9668 35.9395 26.0002C40.0815 26.0337 43.4663 29.4185 43.4998 33.5605ZM36.5061 29.25C36.0919 29.2467 35.7534 29.5797 35.75 29.9939C35.7467 30.4081 36.0797 30.7466 36.4939 30.75C37.7281 30.7599 38.7401 31.7719 38.75 33.0061C38.7534 33.4203 39.0919 33.7533 39.5061 33.75C39.9203 33.7466 40.2533 33.4081 40.25 32.9939C40.2334 30.9409 38.5591 29.2666 36.5061 29.25Z" fill="white"/>
<path d="M38.167 42.2144C38.4992 43.2767 37.8108 44.3461 36.7501 44.5616V45.9998C36.7501 46.414 36.4143 46.7498 36.0001 46.7498C35.5859 46.7498 35.2501 46.414 35.2501 45.9998V44.5616C34.1894 44.3461 33.5009 43.2767 33.8332 42.2144L33.8401 42.193C34.5044 42.3867 35.2043 42.4939 35.9315 42.4998C36.7025 42.506 37.4493 42.3973 38.1595 42.1909C38.1622 42.1988 38.1646 42.2066 38.167 42.2144Z" fill="white"/>
</g>
<defs>
<filter id="filter0_f_80_78" x="-20" y="-20" width="112" height="46" filterUnits="userSpaceOnUse" color-interpolation-filters="sRGB">
<feFlood flood-opacity="0" result="BackgroundImageFix"/>
<feBlend mode="normal" in="SourceGraphic" in2="BackgroundImageFix" result="shape"/>
<feGaussianBlur stdDeviation="10" result="effect1_foregroundBlur_80_78"/>
</filter>
<filter id="filter1_f_80_78" x="46" y="-20" width="46" height="112" filterUnits="userSpaceOnUse" color-interpolation-filters="sRGB">
<feFlood flood-opacity="0" result="BackgroundImageFix"/>
<feBlend mode="normal" in="SourceGraphic" in2="BackgroundImageFix" result="shape"/>
<feGaussianBlur stdDeviation="10" result="effect1_foregroundBlur_80_78"/>
</filter>
<clipPath id="clip0_80_78">
<rect width="72" height="72" rx="16" fill="white"/>
</clipPath>
</defs>
</svg>
