<svg width="230" height="150" viewBox="0 0 230 150" fill="none" xmlns="http://www.w3.org/2000/svg">
<path d="M31.2109 65.1172V78.5703H37.9375C38.8594 78.5703 39.7266 78.3984 40.5391 78.0547C41.3516 77.6953 42.0625 77.2109 42.6719 76.6016C43.2812 75.9922 43.7578 75.2812 44.1016 74.4688C44.4609 73.6406 44.6406 72.7656 44.6406 71.8438C44.6406 70.9219 44.4609 70.0547 44.1016 69.2422C43.7578 68.4141 43.2812 67.6953 42.6719 67.0859C42.0625 66.4766 41.3516 66 40.5391 65.6562C39.7266 65.2969 38.8594 65.1172 37.9375 65.1172H31.2109ZM31.2109 92H24.4844V58.3906H37.9375C39.1719 58.3906 40.3594 58.5547 41.5 58.8828C42.6406 59.1953 43.7031 59.6484 44.6875 60.2422C45.6875 60.8203 46.5938 61.5234 47.4062 62.3516C48.2344 63.1641 48.9375 64.0703 49.5156 65.0703C50.1094 66.0703 50.5625 67.1406 50.875 68.2812C51.2031 69.4219 51.3672 70.6094 51.3672 71.8438C51.3672 73.6875 51.0156 75.4297 50.3125 77.0703C49.6094 78.6953 48.6484 80.1172 47.4297 81.3359C46.2109 82.5547 44.7812 83.5156 43.1406 84.2188C41.5156 84.9219 39.7812 85.2734 37.9375 85.2734H31.2109V92ZM78.9062 79.2266C78.9062 81.1016 78.5703 82.8516 77.8984 84.4766C77.2266 86.0859 76.3125 87.4844 75.1562 88.6719C74 89.8438 72.6406 90.7734 71.0781 91.4609C69.5312 92.1328 67.8672 92.4688 66.0859 92.4688C64.3203 92.4688 62.6562 92.1328 61.0938 91.4609C59.5469 90.7734 58.1875 89.8438 57.0156 88.6719C55.8594 87.4844 54.9453 86.0859 54.2734 84.4766C53.6016 82.8516 53.2656 81.1016 53.2656 79.2266C53.2656 77.3203 53.6016 75.5547 54.2734 73.9297C54.9453 72.3047 55.8594 70.9062 57.0156 69.7344C58.1875 68.5469 59.5469 67.6172 61.0938 66.9453C62.6562 66.2734 64.3203 65.9375 66.0859 65.9375C67.8672 65.9375 69.5312 66.2578 71.0781 66.8984C72.6406 67.5234 74 68.4219 75.1562 69.5938C76.3125 70.75 77.2266 72.1484 77.8984 73.7891C78.5703 75.4141 78.9062 77.2266 78.9062 79.2266ZM72.4609 79.2266C72.4609 78.1953 72.2891 77.2656 71.9453 76.4375C71.6172 75.5938 71.1641 74.875 70.5859 74.2812C70.0078 73.6719 69.3281 73.2109 68.5469 72.8984C67.7812 72.5703 66.9609 72.4062 66.0859 72.4062C65.2109 72.4062 64.3828 72.5703 63.6016 72.8984C62.8359 73.2109 62.1641 73.6719 61.5859 74.2812C61.0234 74.875 60.5781 75.5938 60.25 76.4375C59.9219 77.2656 59.7578 78.1953 59.7578 79.2266C59.7578 80.1953 59.9219 81.0938 60.25 81.9219C60.5781 82.75 61.0234 83.4688 61.5859 84.0781C62.1641 84.6875 62.8359 85.1719 63.6016 85.5312C64.3828 85.875 65.2109 86.0469 66.0859 86.0469C66.9609 86.0469 67.7812 85.8828 68.5469 85.5547C69.3281 85.2266 70.0078 84.7656 70.5859 84.1719C71.1641 83.5781 71.6172 82.8594 71.9453 82.0156C72.2891 81.1719 72.4609 80.2422 72.4609 79.2266ZM114.133 82.9297C114.133 84.2422 113.883 85.4844 113.383 86.6562C112.883 87.8125 112.195 88.8203 111.32 89.6797C110.461 90.5391 109.445 91.2188 108.273 91.7188C107.117 92.2188 105.875 92.4688 104.547 92.4688C103.359 92.4688 102.219 92.2656 101.125 91.8594C100.031 91.4375 99.0391 90.8281 98.1484 90.0312C97.2734 90.8281 96.2891 91.4375 95.1953 91.8594C94.1172 92.2656 92.9766 92.4688 91.7734 92.4688C90.4453 92.4688 89.2031 92.2188 88.0469 91.7188C86.8906 91.2188 85.875 90.5391 85 89.6797C84.1406 88.8203 83.4609 87.8125 82.9609 86.6562C82.4609 85.4844 82.2109 84.2422 82.2109 82.9297V66.9453H88.6094V82.9297C88.6094 83.3672 88.6875 83.7812 88.8438 84.1719C89.0156 84.5469 89.2422 84.8828 89.5234 85.1797C89.8203 85.4609 90.1562 85.6875 90.5312 85.8594C90.9219 86.0156 91.3359 86.0938 91.7734 86.0938C92.2109 86.0938 92.625 86.0156 93.0156 85.8594C93.4062 85.6875 93.75 85.4609 94.0469 85.1797C94.3438 84.8828 94.5703 84.5469 94.7266 84.1719C94.8984 83.7812 94.9844 83.3672 94.9844 82.9297V66.9453H101.359V82.9297C101.359 83.3672 101.445 83.7812 101.617 84.1719C101.789 84.5469 102.016 84.8828 102.297 85.1797C102.594 85.4609 102.93 85.6875 103.305 85.8594C103.695 86.0156 104.109 86.0938 104.547 86.0938C104.984 86.0938 105.398 86.0156 105.789 85.8594C106.18 85.6875 106.516 85.4609 106.797 85.1797C107.094 84.8828 107.328 84.5469 107.5 84.1719C107.672 83.7812 107.758 83.3672 107.758 82.9297V66.9453H114.133V82.9297ZM126.18 92H119.453V58.3906H142.984V65.1172H126.18V71.8438H136.258V78.5703H126.18V92ZM167.078 79.2266C167.078 81.1016 166.742 82.8516 166.07 84.4766C165.398 86.0859 164.484 87.4844 163.328 88.6719C162.172 89.8438 160.812 90.7734 159.25 91.4609C157.703 92.1328 156.039 92.4688 154.258 92.4688C152.492 92.4688 150.828 92.1328 149.266 91.4609C147.719 90.7734 146.359 89.8438 145.188 88.6719C144.031 87.4844 143.117 86.0859 142.445 84.4766C141.773 82.8516 141.438 81.1016 141.438 79.2266C141.438 77.3203 141.773 75.5547 142.445 73.9297C143.117 72.3047 144.031 70.9062 145.188 69.7344C146.359 68.5469 147.719 67.6172 149.266 66.9453C150.828 66.2734 152.492 65.9375 154.258 65.9375C156.039 65.9375 157.703 66.2578 159.25 66.8984C160.812 67.5234 162.172 68.4219 163.328 69.5938C164.484 70.75 165.398 72.1484 166.07 73.7891C166.742 75.4141 167.078 77.2266 167.078 79.2266ZM160.633 79.2266C160.633 78.1953 160.461 77.2656 160.117 76.4375C159.789 75.5938 159.336 74.875 158.758 74.2812C158.18 73.6719 157.5 73.2109 156.719 72.8984C155.953 72.5703 155.133 72.4062 154.258 72.4062C153.383 72.4062 152.555 72.5703 151.773 72.8984C151.008 73.2109 150.336 73.6719 149.758 74.2812C149.195 74.875 148.75 75.5938 148.422 76.4375C148.094 77.2656 147.93 78.1953 147.93 79.2266C147.93 80.1953 148.094 81.0938 148.422 81.9219C148.75 82.75 149.195 83.4688 149.758 84.0781C150.336 84.6875 151.008 85.1719 151.773 85.5312C152.555 85.875 153.383 86.0469 154.258 86.0469C155.133 86.0469 155.953 85.8828 156.719 85.5547C157.5 85.2266 158.18 84.7656 158.758 84.1719C159.336 83.5781 159.789 82.8594 160.117 82.0156C160.461 81.1719 160.633 80.2422 160.633 79.2266ZM194.875 79.2266C194.875 81.1016 194.539 82.8516 193.867 84.4766C193.195 86.0859 192.281 87.4844 191.125 88.6719C189.969 89.8438 188.609 90.7734 187.047 91.4609C185.5 92.1328 183.836 92.4688 182.055 92.4688C180.289 92.4688 178.625 92.1328 177.062 91.4609C175.516 90.7734 174.156 89.8438 172.984 88.6719C171.828 87.4844 170.914 86.0859 170.242 84.4766C169.57 82.8516 169.234 81.1016 169.234 79.2266C169.234 77.3203 169.57 75.5547 170.242 73.9297C170.914 72.3047 171.828 70.9062 172.984 69.7344C174.156 68.5469 175.516 67.6172 177.062 66.9453C178.625 66.2734 180.289 65.9375 182.055 65.9375C183.836 65.9375 185.5 66.2578 187.047 66.8984C188.609 67.5234 189.969 68.4219 191.125 69.5938C192.281 70.75 193.195 72.1484 193.867 73.7891C194.539 75.4141 194.875 77.2266 194.875 79.2266ZM188.43 79.2266C188.43 78.1953 188.258 77.2656 187.914 76.4375C187.586 75.5938 187.133 74.875 186.555 74.2812C185.977 73.6719 185.297 73.2109 184.516 72.8984C183.75 72.5703 182.93 72.4062 182.055 72.4062C181.18 72.4062 180.352 72.5703 179.57 72.8984C178.805 73.2109 178.133 73.6719 177.555 74.2812C176.992 74.875 176.547 75.5938 176.219 76.4375C175.891 77.2656 175.727 78.1953 175.727 79.2266C175.727 80.1953 175.891 81.0938 176.219 81.9219C176.547 82.75 176.992 83.4688 177.555 84.0781C178.133 84.6875 178.805 85.1719 179.57 85.5312C180.352 85.875 181.18 86.0469 182.055 86.0469C182.93 86.0469 183.75 85.8828 184.516 85.5547C185.297 85.2266 185.977 84.7656 186.555 84.1719C187.133 83.5781 187.586 82.8594 187.914 82.0156C188.258 81.1719 188.43 80.2422 188.43 79.2266ZM206.289 89.6094C206.289 90.1719 206.188 90.7031 205.984 91.2031C205.781 91.6875 205.5 92.1094 205.141 92.4688C204.781 92.8281 204.359 93.1094 203.875 93.3125C203.391 93.5312 202.867 93.6406 202.305 93.6406C201.758 93.6406 201.234 93.5312 200.734 93.3125C200.25 93.1094 199.82 92.8281 199.445 92.4688C199.086 92.1094 198.797 91.6875 198.578 91.2031C198.375 90.7031 198.273 90.1719 198.273 89.6094C198.273 89.0625 198.375 88.5469 198.578 88.0625C198.797 87.5781 199.086 87.1562 199.445 86.7969C199.82 86.4375 200.25 86.1562 200.734 85.9531C201.234 85.7344 201.758 85.625 202.305 85.625C202.867 85.625 203.391 85.7344 203.875 85.9531C204.359 86.1562 204.781 86.4375 205.141 86.7969C205.5 87.1562 205.781 87.5781 205.984 88.0625C206.188 88.5469 206.289 89.0625 206.289 89.6094Z" fill="#0000FF"/>
</svg>
