<svg width="72" height="72" viewBox="0 0 72 72" fill="none" xmlns="http://www.w3.org/2000/svg">
<g clip-path="url(#clip0_80_70)">
<rect width="72" height="72" rx="16" fill="#0000FF"/>
<g filter="url(#filter0_f_80_70)">
<rect width="72" height="6" fill="#CCCCFF"/>
</g>
<g filter="url(#filter1_f_80_70)">
<rect x="66" width="6" height="72" fill="#CCCCFF"/>
</g>
<path d="M40.5189 40.5013C40.6939 40.3648 40.8526 40.2061 41.1701 39.8886L45.1275 35.9312C45.2231 35.8356 45.1793 35.6708 45.0515 35.6264C44.5844 35.4644 43.9767 35.1601 43.4083 34.5917C42.8399 34.0233 42.5356 33.4156 42.3736 32.9485C42.3292 32.8207 42.1644 32.7769 42.0688 32.8725L38.1114 36.8299C37.7939 37.1474 37.6352 37.3061 37.4987 37.4811C37.3377 37.6876 37.1996 37.9109 37.087 38.1473C36.9915 38.3476 36.9205 38.5606 36.7786 38.9865L36.5951 39.5368L36.3034 40.4118L36.0299 41.2323C35.9601 41.4419 36.0146 41.6729 36.1708 41.8292C36.3271 41.9854 36.5581 42.0399 36.7677 41.9701L37.5882 41.6966L38.4632 41.4049L39.0135 41.2214L39.0136 41.2214C39.4394 41.0795 39.6524 41.0085 39.8527 40.913C40.0891 40.8004 40.3124 40.6623 40.5189 40.5013Z" fill="white"/>
<path d="M46.3665 34.6922C47.2112 33.8475 47.2112 32.4781 46.3665 31.6335C45.5219 30.7888 44.1525 30.7888 43.3078 31.6335L43.1806 31.7607C43.0578 31.8835 43.0022 32.055 43.0329 32.2259C43.0522 32.3334 43.0879 32.4905 43.153 32.6781C43.2831 33.0531 43.5288 33.5455 43.9917 34.0083C44.4545 34.4712 44.9469 34.7169 45.3219 34.847C45.5095 34.9121 45.6666 34.9478 45.7741 34.9671C45.945 34.9978 46.1165 34.9422 46.2393 34.8194L46.3665 34.6922Z" fill="white"/>
<path fill-rule="evenodd" clip-rule="evenodd" d="M28.1716 27.1716C27 28.3431 27 30.2288 27 34V38C27 41.7712 27 43.6569 28.1716 44.8284C29.3431 46 31.2288 46 35 46H37C40.7712 46 42.6569 46 43.8284 44.8284C44.9812 43.6756 44.9997 41.8316 45 38.1801L42.1817 40.9984C41.9119 41.2683 41.691 41.4894 41.4415 41.6841C41.1491 41.9121 40.8328 42.1076 40.4981 42.2671C40.2124 42.4032 39.9159 42.502 39.5538 42.6225L37.2421 43.3931C36.4935 43.6426 35.6682 43.4478 35.1102 42.8898C34.5523 42.3318 34.3574 41.5065 34.607 40.7579L34.8805 39.9375L35.3556 38.5121L35.3775 38.4463C35.4981 38.0842 35.5968 37.7876 35.7329 37.5019C35.8924 37.1672 36.0879 36.8509 36.316 36.5586C36.5106 36.309 36.7317 36.0881 37.0017 35.8183L41.0081 31.8119L42.12 30.7L42.2472 30.5728C42.9626 29.8574 43.9003 29.4998 44.838 29.5C44.6867 28.4695 44.3941 27.7373 43.8284 27.1716C42.6569 26 40.7712 26 37 26H35C31.2288 26 29.3431 26 28.1716 27.1716ZM31.25 33C31.25 32.5858 31.5858 32.25 32 32.25H38.5C38.9142 32.25 39.25 32.5858 39.25 33C39.25 33.4142 38.9142 33.75 38.5 33.75H32C31.5858 33.75 31.25 33.4142 31.25 33ZM31.25 37C31.25 36.5858 31.5858 36.25 32 36.25H34.5C34.9142 36.25 35.25 36.5858 35.25 37C35.25 37.4142 34.9142 37.75 34.5 37.75H32C31.5858 37.75 31.25 37.4142 31.25 37ZM31.25 41C31.25 40.5858 31.5858 40.25 32 40.25H33.5C33.9142 40.25 34.25 40.5858 34.25 41C34.25 41.4142 33.9142 41.75 33.5 41.75H32C31.5858 41.75 31.25 41.4142 31.25 41Z" fill="white"/>
</g>
<defs>
<filter id="filter0_f_80_70" x="-20" y="-20" width="112" height="46" filterUnits="userSpaceOnUse" color-interpolation-filters="sRGB">
<feFlood flood-opacity="0" result="BackgroundImageFix"/>
<feBlend mode="normal" in="SourceGraphic" in2="BackgroundImageFix" result="shape"/>
<feGaussianBlur stdDeviation="10" result="effect1_foregroundBlur_80_70"/>
</filter>
<filter id="filter1_f_80_70" x="46" y="-20" width="46" height="112" filterUnits="userSpaceOnUse" color-interpolation-filters="sRGB">
<feFlood flood-opacity="0" result="BackgroundImageFix"/>
<feBlend mode="normal" in="SourceGraphic" in2="BackgroundImageFix" result="shape"/>
<feGaussianBlur stdDeviation="10" result="effect1_foregroundBlur_80_70"/>
</filter>
<clipPath id="clip0_80_70">
<rect width="72" height="72" rx="16" fill="white"/>
</clipPath>
</defs>
</svg>
