<svg width="72" height="72" viewBox="0 0 72 72" fill="none" xmlns="http://www.w3.org/2000/svg">
<g clip-path="url(#clip0_80_62)">
<rect width="72" height="72" rx="16" fill="#0000FF"/>
<path d="M28.0454 29.4917L29.4917 28.0454C30.8552 26.6818 31.537 26 32.3843 26C33.2315 26 33.9133 26.6818 35.2769 28.0454L32.8664 30.4559L28.0454 35.2769L28.0454 35.2768C26.6818 33.9133 26 33.2315 26 32.3843C26 31.537 26.6818 30.8552 28.0454 29.4917L28.0454 29.4917Z" fill="white"/>
<path d="M43.9546 42.5083L42.5083 43.9546C41.1448 45.3182 40.463 46 39.6157 46C38.7685 46 38.0867 45.3182 36.7232 43.9546L36.7231 43.9546L41.5441 39.1336L43.9546 36.7231C45.3182 38.0867 46 38.7685 46 39.6157C46 40.463 45.3182 41.1448 43.9546 42.5083Z" fill="white"/>
<path d="M35.4001 42.1612L35.4001 42.1612L42.796 34.7653C41.7894 34.3464 40.5972 33.6582 39.4697 32.5307C38.342 31.403 37.6537 30.2106 37.2348 29.2039L29.8388 36.5999L29.8388 36.5999C29.2617 37.1771 28.9731 37.4657 28.7249 37.7838C28.4321 38.1592 28.1811 38.5653 27.9763 38.995C27.8027 39.3593 27.6737 39.7465 27.4156 40.5208L26.0544 44.6042C25.9274 44.9852 26.0266 45.4053 26.3106 45.6894C26.5947 45.9734 27.0148 46.0726 27.3958 45.9456L31.4792 44.5844C32.2535 44.3263 32.6407 44.1973 33.005 44.0237C33.4347 43.8189 33.8408 43.5679 34.2162 43.2751C34.5343 43.0269 34.823 42.7383 35.4001 42.1612Z" fill="white"/>
<path d="M44.8482 32.7131C46.3839 31.1774 46.3839 28.6875 44.8482 27.1518C43.3125 25.6161 40.8226 25.6161 39.2869 27.1518L38.3999 28.0388C38.4121 28.0755 38.4246 28.1127 38.4377 28.1504C38.7628 29.0875 39.3763 30.316 40.5303 31.47C41.6843 32.624 42.9128 33.2375 43.85 33.5626C43.8875 33.5756 43.9245 33.5882 43.961 33.6003L44.8482 32.7131Z" fill="white"/>
<g filter="url(#filter0_f_80_62)">
<rect width="72" height="6" fill="#CCCCFF"/>
</g>
<g filter="url(#filter1_f_80_62)">
<rect x="66" width="6" height="72" fill="#CCCCFF"/>
</g>
</g>
<defs>
<filter id="filter0_f_80_62" x="-20" y="-20" width="112" height="46" filterUnits="userSpaceOnUse" color-interpolation-filters="sRGB">
<feFlood flood-opacity="0" result="BackgroundImageFix"/>
<feBlend mode="normal" in="SourceGraphic" in2="BackgroundImageFix" result="shape"/>
<feGaussianBlur stdDeviation="10" result="effect1_foregroundBlur_80_62"/>
</filter>
<filter id="filter1_f_80_62" x="46" y="-20" width="46" height="112" filterUnits="userSpaceOnUse" color-interpolation-filters="sRGB">
<feFlood flood-opacity="0" result="BackgroundImageFix"/>
<feBlend mode="normal" in="SourceGraphic" in2="BackgroundImageFix" result="shape"/>
<feGaussianBlur stdDeviation="10" result="effect1_foregroundBlur_80_62"/>
</filter>
<clipPath id="clip0_80_62">
<rect width="72" height="72" rx="16" fill="white"/>
</clipPath>
</defs>
</svg>
